<?xml version="1.0" encoding="utf-8"?>
<!-- Generator: Adobe Illustrator 16.0.0, SVG Export Plug-In . SVG Version: 6.00 Build 0)  -->
<!DOCTYPE svg PUBLIC "-//W3C//DTD SVG 1.1//EN" "http://www.w3.org/Graphics/SVG/1.1/DTD/svg11.dtd">
<svg version="1.1" id="Layer_1" xmlns="http://www.w3.org/2000/svg" xmlns:xlink="http://www.w3.org/1999/xlink" x="0px" y="0px"
	 width="680.078px" height="1427.89px" viewBox="0 0 680.078 1427.89" enable-background="new 0 0 680.078 1427.89"
	 xml:space="preserve">
<g>
	<g>
		<g>
			<linearGradient id="SVGID_1_" gradientUnits="userSpaceOnUse" x1="457.3965" y1="5.356" x2="570.4199" y2="5.356">
				<stop  offset="0.0061" style="stop-color:#D1D6D9"/>
				<stop  offset="0.5031" style="stop-color:#ECEEF0"/>
				<stop  offset="1" style="stop-color:#D1D6D9"/>
			</linearGradient>
			<path fill="url(#SVGID_1_)" d="M570.42,10.712v-5.17c0-3.047-2.494-5.542-5.541-5.542H462.936c-3.047,0-5.539,2.495-5.539,5.542
				v5.17H570.42z"/>
			<path fill="#B4B4B4" d="M113.688,10.726c-56.211,0-101.941,45.732-101.941,101.944v1211.613
				c0,56.212,45.73,101.944,101.941,101.944h462.787c56.211,0,101.941-45.732,101.941-101.944V112.67
				c0-56.212-45.73-101.944-101.941-101.944H113.688z"/>
			<path fill="#F0F0F0" d="M113.688,20.699c-50.711,0-91.969,41.259-91.969,91.971v1211.613c0,50.713,41.258,91.972,91.969,91.972
				h462.787c50.713,0,91.969-41.259,91.969-91.972V112.67c0-50.712-41.256-91.971-91.969-91.971H113.688z"/>
			<linearGradient id="SVGID_2_" gradientUnits="userSpaceOnUse" x1="345.8467" y1="1375.3511" x2="345.8467" y2="1252.0728">
				<stop  offset="0.0061" style="stop-color:#FFFFFF"/>
				<stop  offset="1" style="stop-color:#E6E6E6"/>
			</linearGradient>
			<path fill="url(#SVGID_2_)" d="M407.486,1313.712c0-34.046-27.596-61.64-61.637-61.64c-34.045,0-61.643,27.594-61.643,61.64
				c0,34.039,27.598,61.639,61.643,61.639C379.891,1375.351,407.486,1347.751,407.486,1313.712z"/>
			<linearGradient id="SVGID_3_" gradientUnits="userSpaceOnUse" x1="6.6069" y1="220.8652" x2="6.6069" y2="154.8018">
				<stop  offset="0.0061" style="stop-color:#D1D6D9"/>
				<stop  offset="0.5031" style="stop-color:#ECEEF0"/>
				<stop  offset="1" style="stop-color:#D1D6D9"/>
			</linearGradient>
			<path fill="url(#SVGID_3_)" d="M13.214,215.326c0,3.047-2.495,5.54-5.54,5.54H5.541c-3.049,0-5.541-2.493-5.541-5.54v-54.985
				c0-3.046,2.492-5.539,5.541-5.539h2.133c3.045,0,5.54,2.493,5.54,5.539V215.326z"/>
			<linearGradient id="SVGID_4_" gradientUnits="userSpaceOnUse" x1="6.6069" y1="326.5693" x2="6.6069" y2="274.9189">
				<stop  offset="0.0061" style="stop-color:#D1D6D9"/>
				<stop  offset="0.5031" style="stop-color:#ECEEF0"/>
				<stop  offset="1" style="stop-color:#D1D6D9"/>
			</linearGradient>
			<path fill="url(#SVGID_4_)" d="M13.214,321.029c0,3.047-2.495,5.541-5.54,5.541H5.541c-3.049,0-5.541-2.494-5.541-5.541v-40.57
				c0-3.047,2.492-5.54,5.541-5.54h2.133c3.045,0,5.54,2.493,5.54,5.54V321.029z"/>
			<linearGradient id="SVGID_5_" gradientUnits="userSpaceOnUse" x1="6.6069" y1="443.6841" x2="6.6069" y2="392.0337">
				<stop  offset="0.0061" style="stop-color:#D1D6D9"/>
				<stop  offset="0.5031" style="stop-color:#ECEEF0"/>
				<stop  offset="1" style="stop-color:#D1D6D9"/>
			</linearGradient>
			<path fill="url(#SVGID_5_)" d="M13.214,438.143c0,3.047-2.495,5.541-5.54,5.541H5.541c-3.049,0-5.541-2.494-5.541-5.541v-40.569
				c0-3.048,2.492-5.541,5.541-5.541h2.133c3.045,0,5.54,2.493,5.54,5.541V438.143z"/>
			<g>
				<path fill="#010000" d="M633.949,1214.458c0,7.155-5.854,13.009-13.008,13.009H68.539c-7.154,0-13.008-5.854-13.008-13.009
					V223.545c0-7.155,5.854-13.008,13.008-13.008h552.402c7.154,0,13.008,5.854,13.008,13.008V1214.458z"/>
			</g>
			<linearGradient id="SVGID_6_" gradientUnits="userSpaceOnUse" x1="10.082" y1="718.4771" x2="680.0781" y2="718.4771">
				<stop  offset="0.0061" style="stop-color:#D1D6D9"/>
				<stop  offset="0.5031" style="stop-color:#ECEEF0"/>
				<stop  offset="1" style="stop-color:#D1D6D9"/>
			</linearGradient>
			<path fill="url(#SVGID_6_)" d="M113.688,16.82h462.787c51.154,0,93.075,40.282,95.715,90.789h7.768
				c-2.648-54.787-48.053-98.544-103.482-98.544H113.688c-55.428,0-100.832,43.757-103.48,98.544h7.766
				C20.613,57.102,62.535,16.82,113.688,16.82z M17.84,114.258h-7.758v1145.045h7.758V114.258z M672.322,1324.284
				c0,52.851-42.998,95.851-95.848,95.851H113.688c-52.85,0-95.848-43-95.848-95.851v-58.333h-7.758v58.333
				c0,57.129,46.479,103.606,103.605,103.606h462.787c57.128,0,103.604-46.478,103.604-103.606v-58.333h-7.756V1324.284z
				 M672.322,114.258v1145.045h7.756V114.258H672.322z"/>
			<path fill="#C8C8C8" d="M355.357,1335.133h-18.281c-7.027,0-12.744-5.716-12.744-12.744v-18.282
				c0-7.023,5.717-12.742,12.744-12.742h18.281c7.027,0,12.742,5.719,12.742,12.742v18.282
				C368.1,1329.417,362.385,1335.133,355.357,1335.133z M337.076,1294.689c-5.193,0-9.42,4.225-9.42,9.418v18.282
				c0,5.196,4.227,9.421,9.42,9.421h18.281c5.195,0,9.418-4.225,9.418-9.421v-18.282c0-5.193-4.223-9.418-9.418-9.418H337.076z"/>
		</g>
		<g>
			<circle fill="#E6E6E6" cx="345.881" cy="76.458" r="12.867"/>
			<path fill="#E6E6E6" d="M394.623,118.05h-97.482c-6.452,0-11.7,5.248-11.7,11.698c0,6.449,5.248,11.699,11.7,11.699h97.482
				c6.451,0,11.699-5.25,11.699-11.699C406.322,123.298,401.074,118.05,394.623,118.05z"/>
			<circle fill="#8A9399" cx="345.882" cy="76.458" r="5.515"/>
			<circle fill="#8A9399" cx="253.675" cy="128.839" r="8.708"/>
			<path fill="#8A9399" d="M290.641,129.748c0-3.575,2.926-6.498,6.498-6.498h97.484c3.574,0,6.5,2.923,6.5,6.498l0,0
				c0,3.574-2.926,6.499-6.5,6.499h-97.484C293.566,136.247,290.641,133.322,290.641,129.748L290.641,129.748z"/>
		</g>
	</g>
	<rect x="65.08" y="224.133" fill="#FFFFFF" width="560.016" height="996.458"/>
	<line fill="none" x1="624.779" y1="326.632" x2="624.779" y2="240.784"/>
	<g>
		<text transform="matrix(1 0 0 1 106.8579 572.9307)" fill="#745FFF" font-family="'Kreon-Light'" font-size="26.2917">Your most common expenses</text>
	</g>
	<text transform="matrix(1 0 0 1 107.0942 307.2256)" fill="#745FFF" font-family="'Kreon-Light'" font-size="26.2917">Last expense</text>
	<rect x="64.844" y="604.395" fill="#745FFF" width="5.955" height="84.198"/>
	<path fill-rule="evenodd" clip-rule="evenodd" fill="#745FFF" d="M599.564,734.73c0,0.953-1.977,1.725-4.416,1.725H109.928
		c-2.439,0-4.418-0.771-4.418-1.725v-44.246c0-0.951,1.979-1.723,4.418-1.723h485.221c2.439,0,4.416,0.772,4.416,1.723V734.73z"/>
	<rect x="155.732" y="701.292" fill="none" width="414.982" height="35.163"/>
	<text transform="matrix(1 0 0 1 155.7329 719.3765)"><tspan x="0" y="0" fill="#FFFFFF" font-family="'Kreon-Light'" font-size="24.539">in </tspan><tspan x="25.127" y="0" fill="#FFFFFF" font-family="'Kreon-Bold'" font-size="24.539">New Years Eve in NYC </tspan></text>
	<path fill-rule="evenodd" clip-rule="evenodd" fill="#745FFF" d="M599.564,791.284c0,0.953-1.977,1.726-4.416,1.726H109.928
		c-2.439,0-4.418-0.772-4.418-1.726v-44.246c0-0.951,1.979-1.723,4.418-1.723h485.221c2.439,0,4.416,0.771,4.416,1.723V791.284z"/>
	<rect x="155.732" y="757.845" fill="none" width="414.982" height="35.164"/>
	<text transform="matrix(1 0 0 1 155.7329 775.9292)"><tspan x="0" y="0" fill="#FFFFFF" font-family="'Kreon-Light'" font-size="24.539">in </tspan><tspan x="25.127" y="0" fill="#FFFFFF" font-family="'Kreon-Bold'" font-size="24.539">French cuisine</tspan></text>
	<g>
		<g>
			
				<line fill="none" stroke="#231F20" stroke-width="0.5" stroke-miterlimit="10" x1="105.51" y1="809.133" x2="106.51" y2="809.133"/>
			
				<line fill="none" stroke="#231F20" stroke-width="0.5" stroke-miterlimit="10" stroke-dasharray="1.9931,1.9931" x1="108.502" y1="809.133" x2="593.814" y2="809.133"/>
			
				<line fill="none" stroke="#231F20" stroke-width="0.5" stroke-miterlimit="10" x1="594.812" y1="809.133" x2="595.812" y2="809.133"/>
		</g>
	</g>
	<text transform="matrix(1 0 0 1 105.5093 657.6885)" fill="#745FFF" font-family="'Kreon-Bold'" font-size="39.4376">dinner</text>
	<g>
		<text transform="matrix(1 0 0 1 502.6816 657.6885)" fill="#745FFF" font-family="'Kreon-Light'" font-size="26.2917">$ 30 avg.</text>
	</g>
	<g>
		<text transform="matrix(1 0 0 1 507.624 862.5229)" fill="#745FFF" font-family="'Kreon-Light'" font-size="26.2917">$ 10 avg.</text>
	</g>
	<g>
		<text transform="matrix(1 0 0 1 504.627 946.7222)" fill="#745FFF" font-family="'Kreon-Light'" font-size="26.2917">$ 22 avg.</text>
	</g>
	<g>
		<text transform="matrix(1 0 0 1 504.3906 1030.9194)" fill="#745FFF" font-family="'Kreon-Light'" font-size="26.2917">$ 28 avg.</text>
	</g>
	<g>
		<g>
			
				<line fill="none" stroke="#231F20" stroke-width="0.5" stroke-miterlimit="10" x1="105.51" y1="893.596" x2="106.51" y2="893.596"/>
			
				<line fill="none" stroke="#231F20" stroke-width="0.5" stroke-miterlimit="10" stroke-dasharray="1.9931,1.9931" x1="108.502" y1="893.596" x2="593.814" y2="893.596"/>
			
				<line fill="none" stroke="#231F20" stroke-width="0.5" stroke-miterlimit="10" x1="594.812" y1="893.596" x2="595.812" y2="893.596"/>
		</g>
	</g>
	<text transform="matrix(1 0 0 1 105.5093 862.5229)" fill="#745FFF" font-family="'Kreon-Light'" font-size="39.4376">cucumbers</text>
	<g>
		<g>
			
				<line fill="none" stroke="#231F20" stroke-width="0.5" stroke-miterlimit="10" x1="105.51" y1="977.794" x2="106.51" y2="977.794"/>
			
				<line fill="none" stroke="#231F20" stroke-width="0.5" stroke-miterlimit="10" stroke-dasharray="1.9931,1.9931" x1="108.502" y1="977.794" x2="593.814" y2="977.794"/>
			
				<line fill="none" stroke="#231F20" stroke-width="0.5" stroke-miterlimit="10" x1="594.812" y1="977.794" x2="595.812" y2="977.794"/>
		</g>
	</g>
	<text transform="matrix(1 0 0 1 105.5093 946.7222)" fill="#745FFF" font-family="'Kreon-Light'" font-size="39.4376">hotel night</text>
	<text transform="matrix(1 0 0 1 105.5093 1030.9194)" fill="#745FFF" font-family="'Kreon-Light'" font-size="39.4376">pepperoni pizza</text>
	<g>
		<text transform="matrix(1 0 0 1 507.624 1115.8882)" fill="#745FFF" font-family="'Kreon-Light'" font-size="26.2917">$ 10 avg.</text>
	</g>
	<g>
		<g>
			
				<line fill="none" stroke="#231F20" stroke-width="0.5" stroke-miterlimit="10" x1="105.51" y1="1062.761" x2="106.51" y2="1062.761"/>
			
				<line fill="none" stroke="#231F20" stroke-width="0.5" stroke-miterlimit="10" stroke-dasharray="1.9931,1.9931" x1="108.502" y1="1062.761" x2="593.814" y2="1062.761"/>
			
				<line fill="none" stroke="#231F20" stroke-width="0.5" stroke-miterlimit="10" x1="594.812" y1="1062.761" x2="595.812" y2="1062.761"/>
		</g>
	</g>
	<text transform="matrix(1 0 0 1 105.5093 1115.8882)" fill="#745FFF" font-family="'Kreon-Light'" font-size="39.4376">bottled water</text>
	<rect x="107.949" y="332.433" fill="#414042" width="137" height="45"/>
	<g>
		
			<text transform="matrix(1 0 0 1 117.7104 366.1172)" fill="#FFFFFF" font-family="'Kreon-Regular'" font-size="31.5501" letter-spacing="3">$123.00</text>
	</g>
	<g>
		<g>
			
				<line fill="none" stroke="#231F20" stroke-width="0.5" stroke-miterlimit="10" x1="64.844" y1="515.764" x2="65.844" y2="515.764"/>
			
				<line fill="none" stroke="#231F20" stroke-width="0.5" stroke-miterlimit="10" stroke-dasharray="2.0017,2.0017" x1="67.846" y1="515.764" x2="623.33" y2="515.764"/>
			
				<line fill="none" stroke="#231F20" stroke-width="0.5" stroke-miterlimit="10" x1="624.332" y1="515.764" x2="625.332" y2="515.764"/>
		</g>
	</g>
	<text transform="matrix(1 0 0 1 105.7461 421.4019)"><tspan x="0" y="0" fill="#745FFF" font-family="'Kreon-Bold'" font-size="26.2917">taxi</tspan><tspan x="42.25" y="0" fill="#745FFF" font-family="'Kreon-Regular'" font-size="26.2917"> </tspan><tspan x="48.823" y="0" fill="#745FFF" font-family="'Kreon-Light'" font-size="26.2917">in </tspan><tspan x="75.745" y="0" fill="#745FFF" font-family="'Kreon-Bold'" font-size="26.2917">New Years Eve in NYC </tspan></text>
	<g>
		<path fill-rule="evenodd" clip-rule="evenodd" fill="#FF2434" d="M575.207,355.235c-0.104,0.141-0.156,0.234-0.229,0.306
			c-2.389,2.391-4.777,4.778-7.166,7.167c-0.635,0.636-1.15,0.633-1.791-0.01c-0.859-0.857-1.717-1.716-2.574-2.574
			c-0.582-0.583-0.579-1.126,0.006-1.711c2.4-2.403,4.803-4.806,7.207-7.205c0.073-0.071,0.172-0.118,0.332-0.227
			c-0.166-0.117-0.262-0.167-0.335-0.239c-2.396-2.394-4.792-4.79-7.188-7.185c-0.609-0.611-0.609-1.138,0-1.752
			c0.873-0.871,1.742-1.744,2.615-2.614c0.559-0.558,1.116-0.558,1.671-0.005c2.41,2.409,4.818,4.818,7.228,7.229
			c0.071,0.071,0.123,0.166,0.246,0.339c0.104-0.16,0.146-0.26,0.218-0.333c2.394-2.397,4.79-4.792,7.185-7.188
			c0.615-0.615,1.143-0.617,1.75-0.009c0.873,0.871,1.746,1.742,2.617,2.614c0.566,0.57,0.564,1.121-0.006,1.692
			c-2.402,2.403-4.805,4.804-7.209,7.206c-0.074,0.072-0.164,0.125-0.347,0.264c0.159,0.1,0.272,0.144,0.351,0.222
			c2.391,2.385,4.778,4.774,7.168,7.164c0.625,0.623,0.625,1.144-0.002,1.772c-0.865,0.864-1.729,1.729-2.596,2.595
			c-0.572,0.569-1.12,0.569-1.689,0c-2.404-2.4-4.805-4.802-7.205-7.205C575.391,355.477,575.332,355.389,575.207,355.235z"/>
	</g>
	<path fill="none" stroke="#745FFF" stroke-miterlimit="10" d="M367.364,490.452c0,1.743-2.149,3.155-4.802,3.155h-250.85
		c-2.651,0-4.801-1.413-4.801-3.155v-34.009c0-1.743,2.149-3.155,4.801-3.155h250.85c2.652,0,4.802,1.412,4.802,3.155V490.452z"/>
	<text transform="matrix(1 0 0 1 126.3374 480.7568)" fill="#745FFF" font-family="'Kreon-Light'" font-size="26.2917">view expense archive</text>
	<g>
		<g>
			<rect x="64.643" y="224.272" fill="none" width="560.891" height="35.056"/>
			<text transform="matrix(1 0 0 1 141.311 250.0493)" fill="#231F20" font-family="'HelveticaNeue'" font-size="20.157">Carrier</text>
			<text transform="matrix(1 0 0 1 294.6865 250.0493)" fill="#231F20" font-family="'HelveticaNeue-Medium'" font-size="21.9098">12:34 AM</text>
			<text transform="matrix(1 0 0 1 513.6406 250.0493)" fill="#231F20" font-family="'HelveticaNeue'" font-size="20.157">100%</text>
			<path opacity="0.5" fill="#231F20" d="M506.67,247.66l-5.821-5.376l5.451-5.182l-7.612-6.727v9.909l-5.061-4.674l-1.189,1.287
				l5.848,5.404l-5.856,5.563l1.208,1.272l5.051-4.8v9.967L506.67,247.66z M500.44,250.562v-6.27l3.571,3.299L500.44,250.562z
				 M500.44,234.263l3.265,2.886l-3.265,3.102V234.263z"/>
			<g>
				<path fill="#231F20" d="M216.088,242.106l1.803,1.957c1.537-1.419,3.517-2.205,5.623-2.205c2.102,0,4.08,0.784,5.617,2.2
					l1.803-1.957c-2.031-1.872-4.644-2.907-7.42-2.907C220.732,239.195,218.119,240.234,216.088,242.106z"/>
				<path fill="#231F20" d="M219.961,246.313l3.547,3.853l3.551-3.857C225.049,244.461,221.969,244.463,219.961,246.313z"/>
				<path fill="#231F20" d="M223.514,233.954c-4.106,0-7.97,1.534-10.973,4.301l1.777,1.932c2.518-2.318,5.754-3.604,9.195-3.604
					c3.439,0,6.674,1.283,9.188,3.6l1.778-1.932C231.48,235.484,227.618,233.954,223.514,233.954z"/>
			</g>
			<g>
				<circle fill="#231F20" cx="81.158" cy="242.967" r="5.258"/>
				<path fill="#231F20" d="M93.428,237.709c-2.904,0-5.258,2.356-5.258,5.258c0,2.905,2.354,5.258,5.258,5.258
					s5.258-2.354,5.258-5.258C98.686,240.065,96.332,237.709,93.428,237.709z"/>
				<path fill="#231F20" d="M105.697,237.709c-2.904,0-5.258,2.356-5.258,5.258c0,2.905,2.354,5.258,5.258,5.258
					s5.258-2.354,5.258-5.258C110.955,240.065,108.602,237.709,105.697,237.709z"/>
				<path fill="#231F20" d="M117.967,237.709c-2.904,0-5.258,2.356-5.258,5.258c0,2.905,2.354,5.258,5.258,5.258
					s5.258-2.354,5.258-5.258C123.225,240.065,120.871,237.709,117.967,237.709z"/>
				<path fill="#231F20" d="M130.236,237.709c-2.904,0-5.258,2.356-5.258,5.258c0,2.905,2.354,5.258,5.258,5.258
					s5.258-2.354,5.258-5.258C135.494,240.065,133.141,237.709,130.236,237.709z M130.236,247.35c-2.416,0-4.383-1.962-4.383-4.382
					c0-2.414,1.967-4.382,4.383-4.382s4.381,1.968,4.381,4.382C134.617,245.387,132.652,247.35,130.236,247.35z"/>
			</g>
		</g>
		<g>
			<path fill="#231F20" d="M610.777,234.843c0.492,0,0.891,0.399,0.891,0.89v13.094c0,0.49-0.398,0.89-0.891,0.89h-35.005
				c-0.489,0-0.888-0.4-0.888-0.89v-13.094c0-0.491,0.398-0.89,0.888-0.89H610.777 M610.777,233.954h-35.005
				c-0.978,0-1.778,0.799-1.778,1.779v13.094c0,0.979,0.801,1.778,1.778,1.778h35.005c0.979,0,1.777-0.799,1.777-1.778v-13.094
				C612.555,234.753,611.756,233.954,610.777,233.954L610.777,233.954z"/>
			<path fill="#231F20" d="M610.803,247.976c0,0.482-0.393,0.876-0.877,0.876h-33.303c-0.48,0-0.877-0.394-0.877-0.876v-11.393
				c0-0.48,0.396-0.876,0.877-0.876h33.303c0.484,0,0.877,0.396,0.877,0.876V247.976z"/>
			<path fill="#231F20" d="M613.432,238.621v7.011c1.938,0,3.506-1.568,3.506-3.505
				C616.938,240.191,615.369,238.621,613.432,238.621z"/>
		</g>
	</g>
	<g opacity="0.5">
		<g>
			<g>
				<path fill="#231F20" d="M86.045,1198.989c0,6.6,5.4,12,12,12h494.088c6.6,0,12-5.4,12-12v-31.08c0-6.6-5.4-12-12-12H98.045
					c-6.6,0-12,5.4-12,12V1198.989z"/>
			</g>
		</g>
	</g>
	<g>
		<path fill-rule="evenodd" clip-rule="evenodd" fill="#FFFFFF" d="M437.287,1195.984c-0.047-1.389-0.09-2.756-0.133-4.121
			c-0.123-3.983-0.248-7.969-0.361-11.951c-0.004-0.196,0.09-0.429,0.21-0.59c2.022-2.709,4.048-5.414,6.091-8.106
			c0.119-0.157,0.373-0.29,0.564-0.29c8.041-0.016,16.084-0.016,24.127-0.002c0.193,0.002,0.447,0.132,0.564,0.285
			c2.053,2.707,4.09,5.423,6.121,8.144c0.109,0.15,0.188,0.367,0.184,0.551c-0.102,3.735-0.215,7.47-0.331,11.206
			c-0.05,1.617-0.108,3.232-0.165,4.875C461.862,1195.984,449.592,1195.984,437.287,1195.984z M472.09,1179.616
			c-0.051-0.116-0.059-0.165-0.082-0.198c-1.543-2.058-3.084-4.116-4.639-6.16c-0.098-0.129-0.342-0.208-0.518-0.208
			c-7.418-0.011-14.837-0.012-22.256,0.002c-0.193,0.001-0.451,0.131-0.57,0.287c-1.5,1.968-2.982,3.951-4.471,5.934
			c-0.066,0.093-0.111,0.196-0.201,0.353c4.188,0,8.297,0,12.4,0c0.338,2.404,1.805,3.878,3.86,3.915
			c0.972,0.016,1.844-0.274,2.597-0.887c0.943-0.772,1.394-1.799,1.465-3.037C463.811,1179.616,467.916,1179.616,472.09,1179.616z"
			/>
	</g>
	<path opacity="0.4" fill-rule="evenodd" clip-rule="evenodd" fill="#FFFFFF" d="M247.652,1167.308
		c-6.031,0-10.915,5.307-10.915,11.852c0,4.799,3.278,7.405,6.403,10.797c2.583,2.928,3.896,7.4,4.154,8.345
		c-0.004,0.029-0.006,0.064-0.006,0.099c0,0.373,0.279,0.683,0.625,0.683c0.354,0,0.631-0.31,0.631-0.683
		c0-0.047-0.004-0.083-0.009-0.125c0.294-1.075,1.806-6.147,4.794-8.989c2.551-2.772,5.236-5.838,5.236-10.126
		C258.566,1172.615,253.68,1167.308,247.652,1167.308z M247.646,1184.912c-3.283,0-5.951-2.672-5.951-5.955
		c0-3.292,2.668-5.954,5.951-5.954c3.291,0,5.963,2.662,5.963,5.954C253.609,1182.24,250.938,1184.912,247.646,1184.912z"/>
	
		<circle opacity="0.4" fill="none" stroke="#FFFFFF" stroke-width="3" stroke-miterlimit="10" cx="345.089" cy="1183.039" r="18.524"/>
	<g opacity="0.4">
		<path fill="#FFFFFF" d="M346.882,1173.779v7.889h7.562v3.4h-7.562v7.96h-3.546v-7.96h-7.562v-3.4h7.562v-7.889H346.882z"/>
	</g>
	<g opacity="0.4">
		<path fill-rule="evenodd" clip-rule="evenodd" fill="#FFFFFF" d="M147.422,1188.899c-1.1,1.233-2.164,2.411-3.211,3.604
			c-1.016,1.161-1.998,2.355-3.029,3.503c-0.371,0.415-0.805,0.809-1.282,1.089c-0.823,0.482-1.438,0.115-1.505-0.827
			c-0.02-0.305-0.032-0.61-0.032-0.915c-0.001-8.867-0.003-17.735,0.003-26.604c0-0.485,0.049-0.975,0.122-1.457
			c0.116-0.763,0.61-1.173,1.353-1.287c0.375-0.058,0.758-0.093,1.139-0.093c4.311-0.005,8.623-0.005,12.935,0
			c0.319,0,0.642,0.02,0.958,0.066c1.055,0.156,1.498,0.618,1.605,1.671c0.037,0.364,0.055,0.732,0.055,1.098
			c0.004,8.914,0.004,17.828,0,26.739c0,0.321-0.015,0.643-0.049,0.961c-0.076,0.688-0.534,0.987-1.197,0.778
			c-0.721-0.227-1.195-0.775-1.668-1.316c-1.689-1.934-3.371-3.874-5.061-5.807C148.215,1189.713,147.846,1189.347,147.422,1188.899
			z"/>
	</g>
	<g opacity="0.4">
		<path fill-rule="evenodd" clip-rule="evenodd" fill="#FFFFFF" d="M550.751,1198.988c-3.169,0.01-6.327-0.124-9.423-0.859
			c-0.855-0.203-1.689-0.529-2.502-0.872c-0.883-0.373-1.193-1.053-1.098-2.046c0.307-3.13,1.807-5.549,4.275-7.402
			c2.188-1.642,4.689-2.471,7.403-2.692c3.407-0.277,6.605,0.373,9.495,2.245c2.465,1.595,4.146,3.781,4.742,6.706
			c0.119,0.581,0.162,1.182,0.192,1.776c0.024,0.499-0.269,0.859-0.659,1.138c-0.877,0.63-1.893,0.914-2.92,1.151
			c-2.498,0.573-5.039,0.785-7.594,0.853C552.025,1199.001,551.388,1198.988,550.751,1198.988z"/>
		<path fill-rule="evenodd" clip-rule="evenodd" fill="#FFFFFF" d="M550.785,1181.1c-3.824,0.007-7.006-3.115-7.014-6.883
			c-0.006-3.995,3.082-7.138,7.012-7.134c3.845,0.008,6.988,3.129,6.994,6.945C557.781,1177.954,554.678,1181.093,550.785,1181.1z"
			/>
	</g>
</g>
</svg>
