<?xml version="1.0" encoding="utf-8"?>
<!-- Generator: Adobe Illustrator 16.0.0, SVG Export Plug-In . SVG Version: 6.00 Build 0)  -->
<!DOCTYPE svg PUBLIC "-//W3C//DTD SVG 1.1//EN" "http://www.w3.org/Graphics/SVG/1.1/DTD/svg11.dtd">
<svg version="1.1" id="Layer_1" xmlns="http://www.w3.org/2000/svg" xmlns:xlink="http://www.w3.org/1999/xlink" x="0px" y="0px"
	 width="273px" height="219px" viewBox="0 0 273 219" enable-background="new 0 0 273 219" xml:space="preserve">
<path fill="#231F20" d="M221,59.219c0,2.53-2.256,3.781-4.723,3.781H3.777C1.311,63,0,61.749,0,59.219V4.894
	C0,2.363,1.311,0,3.777,0h212.5C218.744,0,221,2.363,221,4.894V59.219z"/>
<text transform="matrix(1 0 0 1 20.5137 45.5366)" fill="#FFFFFF" font-family="'GothamRounded-Light'" font-size="50.2423" letter-spacing="1">money</text>
<path fill="#231F20" d="M273,135.143c0,2.53-4.012,4.857-7.044,4.857H4.828C1.796,140,0,137.673,0,135.143V80.817
	C0,78.288,1.796,76,4.828,76h261.128c3.032,0,7.044,2.288,7.044,4.817V135.143z"/>
<text transform="matrix(1 0 0 1 20.5137 123.4258)" fill="#FFFFFF" font-family="'GothamRounded-Light'" font-size="50.2423" letter-spacing="1">relatable</text>
<path fill="#231F20" d="M221,214.339c0,2.53-2.248,4.661-4.716,4.661H3.777C1.311,219,0,216.869,0,214.339v-54.325
	C0,157.483,1.311,155,3.777,155h212.507c2.468,0,4.716,2.483,4.716,5.014V214.339z"/>
<text transform="matrix(1 0 0 1 20.5137 202.6211)" fill="#FFFFFF" font-family="'GothamRounded-Light'" font-size="50.2423" letter-spacing="1">stories</text>
</svg>
