<?xml version="1.0" encoding="utf-8"?>
<!-- Generator: Adobe Illustrator 16.0.0, SVG Export Plug-In . SVG Version: 6.00 Build 0)  -->
<!DOCTYPE svg PUBLIC "-//W3C//DTD SVG 1.1//EN" "http://www.w3.org/Graphics/SVG/1.1/DTD/svg11.dtd">
<svg version="1.1" id="Layer_1" xmlns="http://www.w3.org/2000/svg" xmlns:xlink="http://www.w3.org/1999/xlink" x="0px" y="0px"
	 width="774.103px" height="1629.282px" viewBox="0 0 774.103 1629.282" enable-background="new 0 0 774.103 1629.282"
	 xml:space="preserve">
<g>
	<g>
		<linearGradient id="SVGID_1_" gradientUnits="userSpaceOnUse" x1="521.9097" y1="6.1113" x2="650.874" y2="6.1113">
			<stop  offset="0.0061" style="stop-color:#D1D6D9"/>
			<stop  offset="0.5031" style="stop-color:#ECEEF0"/>
			<stop  offset="1" style="stop-color:#D1D6D9"/>
		</linearGradient>
		<path fill="url(#SVGID_1_)" d="M650.874,12.223v-5.9c0-3.477-2.845-6.322-6.322-6.322H528.23c-3.477,0-6.32,2.846-6.32,6.322v5.9
			H650.874z"/>
		<path fill="#B4B4B4" d="M129.724,12.238c-64.14,0-116.32,52.182-116.32,116.322v1382.503c0,64.14,52.181,116.322,116.32,116.322
			h528.059c64.139,0,116.32-52.183,116.32-116.322V128.561c0-64.141-52.182-116.322-116.32-116.322H129.724z"/>
		<path fill="#F0F0F0" d="M129.724,23.618c-57.863,0-104.94,47.077-104.94,104.942v1382.503c0,57.865,47.077,104.943,104.94,104.943
			h528.059c57.865,0,104.941-47.078,104.941-104.943V128.561c0-57.865-47.076-104.942-104.941-104.942H129.724z"/>
		<linearGradient id="SVGID_2_" gradientUnits="userSpaceOnUse" x1="394.6274" y1="1569.333" x2="394.6274" y2="1428.667">
			<stop  offset="0.0061" style="stop-color:#FFFFFF"/>
			<stop  offset="1" style="stop-color:#E6E6E6"/>
		</linearGradient>
		<path fill="url(#SVGID_2_)" d="M464.96,1499.001c0-38.848-31.488-70.334-70.33-70.334c-38.846,0-70.336,31.486-70.336,70.334
			c0,38.84,31.49,70.332,70.336,70.332C433.472,1569.333,464.96,1537.841,464.96,1499.001z"/>
		<linearGradient id="SVGID_3_" gradientUnits="userSpaceOnUse" x1="7.5391" y1="252.0156" x2="7.5391" y2="176.6348">
			<stop  offset="0.0061" style="stop-color:#D1D6D9"/>
			<stop  offset="0.5031" style="stop-color:#ECEEF0"/>
			<stop  offset="1" style="stop-color:#D1D6D9"/>
		</linearGradient>
		<path fill="url(#SVGID_3_)" d="M15.078,245.695c0,3.477-2.847,6.32-6.322,6.32H6.322c-3.477,0-6.322-2.844-6.322-6.32v-62.74
			c0-3.477,2.846-6.32,6.322-6.32h2.434c3.476,0,6.322,2.844,6.322,6.32V245.695z"/>
		<linearGradient id="SVGID_4_" gradientUnits="userSpaceOnUse" x1="7.5391" y1="372.6289" x2="7.5391" y2="313.6934">
			<stop  offset="0.0061" style="stop-color:#D1D6D9"/>
			<stop  offset="0.5031" style="stop-color:#ECEEF0"/>
			<stop  offset="1" style="stop-color:#D1D6D9"/>
		</linearGradient>
		<path fill="url(#SVGID_4_)" d="M15.078,366.307c0,3.477-2.847,6.322-6.322,6.322H6.322c-3.477,0-6.322-2.846-6.322-6.322v-46.291
			c0-3.479,2.846-6.322,6.322-6.322h2.434c3.476,0,6.322,2.844,6.322,6.322V366.307z"/>
		<linearGradient id="SVGID_5_" gradientUnits="userSpaceOnUse" x1="7.5391" y1="506.2617" x2="7.5391" y2="447.3262">
			<stop  offset="0.0061" style="stop-color:#D1D6D9"/>
			<stop  offset="0.5031" style="stop-color:#ECEEF0"/>
			<stop  offset="1" style="stop-color:#D1D6D9"/>
		</linearGradient>
		<path fill="url(#SVGID_5_)" d="M15.078,499.939c0,3.477-2.847,6.322-6.322,6.322H6.322c-3.477,0-6.322-2.846-6.322-6.322v-46.291
			c0-3.479,2.846-6.322,6.322-6.322h2.434c3.476,0,6.322,2.844,6.322,6.322V499.939z"/>
		<g>
			<path fill="#010000" d="M723.365,1387.583c0,7.154-5.854,13.008-13.008,13.008H76.372c-7.155,0-13.008-5.854-13.008-13.008
				V253.238c0-7.154,5.854-13.008,13.008-13.008h633.985c7.155,0,13.008,5.854,13.008,13.008V1387.583z"/>
		</g>
		<linearGradient id="SVGID_6_" gradientUnits="userSpaceOnUse" x1="11.5049" y1="819.8125" x2="775.9995" y2="819.8125">
			<stop  offset="0.0061" style="stop-color:#D1D6D9"/>
			<stop  offset="0.5031" style="stop-color:#ECEEF0"/>
			<stop  offset="1" style="stop-color:#D1D6D9"/>
		</linearGradient>
		<path fill="url(#SVGID_6_)" d="M129.724,19.191h528.059c58.369,0,106.203,45.963,109.214,103.594h8.864
			c-3.021-62.514-54.83-112.443-118.078-112.443H129.724c-63.247,0-115.054,49.93-118.075,112.443h8.861
			C23.521,65.154,71.355,19.191,129.724,19.191z M20.357,130.373h-8.853v1306.544h8.853V130.373z M767.15,1511.063
			c0,60.305-49.062,109.369-109.367,109.369H129.724c-60.305,0-109.366-49.064-109.366-109.369v-66.561h-8.853v66.561
			c0,65.186,53.033,118.219,118.219,118.219h528.059c65.186,0,118.217-53.033,118.217-118.219v-66.561h-8.85V1511.063z
			 M767.15,130.373v1306.544H776V130.373H767.15z"/>
		<path fill="#C8C8C8" d="M405.48,1523.442h-20.861c-8.018,0-14.541-6.521-14.541-14.541v-20.861
			c0-8.014,6.523-14.539,14.541-14.539h20.861c8.017,0,14.539,6.525,14.539,14.539v20.861
			C420.019,1516.921,413.497,1523.442,405.48,1523.442z M384.619,1477.294c-5.926,0-10.748,4.82-10.748,10.746v20.861
			c0,5.929,4.822,10.748,10.748,10.748h20.861c5.928,0,10.746-4.819,10.746-10.748v-20.861c0-5.926-4.818-10.746-10.746-10.746
			H384.619z"/>
	</g>
	<g>
		<path fill="#E6E6E6" d="M409.347,87.24c0-8.109-6.57-14.682-14.682-14.682c-8.109,0-14.681,6.572-14.681,14.682
			s6.572,14.682,14.681,14.682C402.777,101.922,409.347,95.35,409.347,87.24z"/>
		<path fill="#E6E6E6" d="M450.283,134.699H339.05c-7.361,0-13.35,5.988-13.35,13.348s5.988,13.35,13.35,13.35h111.232
			c7.361,0,13.35-5.99,13.35-13.35S457.644,134.699,450.283,134.699z"/>
		<circle fill="#8A9399" cx="394.666" cy="87.24" r="6.292"/>
		<circle fill="#8A9399" cx="289.456" cy="147.01" r="9.937"/>
		<path fill="#8A9399" d="M331.634,148.047c0-4.078,3.338-7.414,7.414-7.414h111.234c4.078,0,7.416,3.336,7.416,7.414l0,0
			c0,4.078-3.338,7.416-7.416,7.416H339.048C334.972,155.463,331.634,152.125,331.634,148.047L331.634,148.047z"/>
	</g>
</g>
<rect x="74" y="253.744" fill="#FF2434" width="639" height="1137"/>
<g>
	<g>
		
			<line fill="none" stroke="#231F20" stroke-width="0.5" stroke-miterlimit="10" x1="126.637" y1="992.303" x2="127.637" y2="992.303"/>
		
			<line fill="none" stroke="#231F20" stroke-width="0.5" stroke-miterlimit="10" stroke-dasharray="1.9994,1.9994" x1="129.636" y1="992.303" x2="688.469" y2="992.303"/>
		
			<line fill="none" stroke="#231F20" stroke-width="0.5" stroke-miterlimit="10" x1="689.469" y1="992.303" x2="690.469" y2="992.303"/>
	</g>
</g>
<g>
	<g>
		<line fill="none" stroke="#231F20" stroke-width="0.5" stroke-miterlimit="10" x1="74" y1="824.225" x2="75" y2="824.225"/>
		
			<line fill="none" stroke="#231F20" stroke-width="0.5" stroke-miterlimit="10" stroke-dasharray="1.9969,1.9969" x1="76.997" y1="824.225" x2="711.001" y2="824.225"/>
		<line fill="none" stroke="#231F20" stroke-width="0.5" stroke-miterlimit="10" x1="712" y1="824.225" x2="713" y2="824.225"/>
	</g>
</g>
<rect x="130.152" y="929.801" fill="none" width="473.511" height="60.502"/>
<text transform="matrix(1 0 0 1 130.1519 957.6543)" fill="#59141F" font-family="'Kreon-Regular'" font-size="38">I´m being a Dad!</text>
<g>
	<g>
		
			<line fill="none" stroke="#231F20" stroke-width="0.5" stroke-miterlimit="10" x1="126.637" y1="1080.331" x2="127.637" y2="1080.331"/>
		
			<line fill="none" stroke="#231F20" stroke-width="0.5" stroke-miterlimit="10" stroke-dasharray="1.9994,1.9994" x1="129.636" y1="1080.331" x2="688.469" y2="1080.331"/>
		
			<line fill="none" stroke="#231F20" stroke-width="0.5" stroke-miterlimit="10" x1="689.469" y1="1080.331" x2="690.469" y2="1080.331"/>
	</g>
</g>
<rect x="130.152" y="1017.828" fill="none" width="473.511" height="60.503"/>
<text transform="matrix(1 0 0 1 130.1519 1045.6816)" fill="#59141F" font-family="'Kreon-Regular'" font-size="38">Going vegan</text>
<g>
	<g>
		
			<line fill="none" stroke="#231F20" stroke-width="0.5" stroke-miterlimit="10" x1="126.637" y1="1168.357" x2="127.637" y2="1168.357"/>
		
			<line fill="none" stroke="#231F20" stroke-width="0.5" stroke-miterlimit="10" stroke-dasharray="1.9994,1.9994" x1="129.636" y1="1168.357" x2="688.469" y2="1168.357"/>
		
			<line fill="none" stroke="#231F20" stroke-width="0.5" stroke-miterlimit="10" x1="689.469" y1="1168.357" x2="690.469" y2="1168.357"/>
	</g>
</g>
<rect x="130.152" y="1105.855" fill="none" width="473.511" height="60.502"/>
<text transform="matrix(1 0 0 1 130.1519 1133.709)" fill="#59141F" font-family="'Kreon-Regular'" font-size="38">Art supporter</text>
<g>
	<g>
		
			<line fill="none" stroke="#231F20" stroke-width="0.5" stroke-miterlimit="10" x1="126.637" y1="647.575" x2="127.637" y2="647.575"/>
		
			<line fill="none" stroke="#231F20" stroke-width="0.5" stroke-miterlimit="10" stroke-dasharray="1.9994,1.9994" x1="129.636" y1="647.575" x2="688.469" y2="647.575"/>
		
			<line fill="none" stroke="#231F20" stroke-width="0.5" stroke-miterlimit="10" x1="689.469" y1="647.575" x2="690.469" y2="647.575"/>
	</g>
</g>
<rect x="130.152" y="585.073" fill="none" width="473.511" height="60.502"/>
<text transform="matrix(1 0 0 1 130.1519 612.9268)" fill="#59141F" font-family="'Kreon-Regular'" font-size="38">Wine</text>
<g>
	<g>
		
			<line fill="none" stroke="#231F20" stroke-width="0.5" stroke-miterlimit="10" x1="126.637" y1="735.604" x2="127.637" y2="735.604"/>
		
			<line fill="none" stroke="#231F20" stroke-width="0.5" stroke-miterlimit="10" stroke-dasharray="1.9994,1.9994" x1="129.636" y1="735.604" x2="688.469" y2="735.604"/>
		
			<line fill="none" stroke="#231F20" stroke-width="0.5" stroke-miterlimit="10" x1="689.469" y1="735.604" x2="690.469" y2="735.604"/>
	</g>
</g>
<rect x="130.152" y="673.101" fill="none" width="473.511" height="60.503"/>
<text transform="matrix(1 0 0 1 130.1519 700.9541)" fill="#59141F" font-family="'Kreon-Regular'" font-size="38">Learning french cuisine</text>
<rect x="130.152" y="761.128" fill="none" width="473.511" height="60.502"/>
<text transform="matrix(1 0 0 1 130.1519 788.9814)" fill="#59141F" font-family="'Kreon-Regular'" font-size="38">Gamer </text>
<g>
	<g>
		
			<line fill="none" stroke="#231F20" stroke-width="0.5" stroke-miterlimit="10" x1="126.637" y1="1256.384" x2="127.637" y2="1256.384"/>
		
			<line fill="none" stroke="#231F20" stroke-width="0.5" stroke-miterlimit="10" stroke-dasharray="1.9994,1.9994" x1="129.636" y1="1256.384" x2="688.469" y2="1256.384"/>
		
			<line fill="none" stroke="#231F20" stroke-width="0.5" stroke-miterlimit="10" x1="689.469" y1="1256.384" x2="690.469" y2="1256.384"/>
	</g>
</g>
<rect x="130.152" y="1193.882" fill="none" width="473.511" height="60.502"/>
<text transform="matrix(1 0 0 1 130.1519 1221.7354)" fill="#59141F" font-family="'Kreon-Regular'" font-size="38">Documentaries</text>
<g>
	<g>
		
			<line fill="none" stroke="#FFFFFF" stroke-width="2" stroke-miterlimit="10" x1="675.338" y1="959.316" x2="690.278" y2="944.559"/>
		
			<line fill="none" stroke="#FFFFFF" stroke-width="2" stroke-miterlimit="10" x1="675.338" y1="929.801" x2="690.278" y2="944.559"/>
	</g>
	<g>
		
			<line fill="none" stroke="#FFFFFF" stroke-width="2" stroke-miterlimit="10" x1="675.338" y1="1047.344" x2="690.278" y2="1032.586"/>
		
			<line fill="none" stroke="#FFFFFF" stroke-width="2" stroke-miterlimit="10" x1="675.338" y1="1017.828" x2="690.278" y2="1032.586"/>
	</g>
	<g>
		
			<line fill="none" stroke="#FFFFFF" stroke-width="2" stroke-miterlimit="10" x1="675.338" y1="1135.371" x2="690.278" y2="1120.613"/>
		
			<line fill="none" stroke="#FFFFFF" stroke-width="2" stroke-miterlimit="10" x1="675.338" y1="1105.855" x2="690.278" y2="1120.613"/>
	</g>
	<g>
		
			<line fill="none" stroke="#FFFFFF" stroke-width="2" stroke-miterlimit="10" x1="675.338" y1="614.589" x2="690.278" y2="599.831"/>
		
			<line fill="none" stroke="#FFFFFF" stroke-width="2" stroke-miterlimit="10" x1="675.338" y1="585.073" x2="690.278" y2="599.831"/>
	</g>
	<g>
		
			<line fill="none" stroke="#FFFFFF" stroke-width="2" stroke-miterlimit="10" x1="675.338" y1="702.616" x2="690.278" y2="687.858"/>
		
			<line fill="none" stroke="#FFFFFF" stroke-width="2" stroke-miterlimit="10" x1="675.338" y1="673.101" x2="690.278" y2="687.858"/>
	</g>
	<g>
		
			<line fill="none" stroke="#FFFFFF" stroke-width="2" stroke-miterlimit="10" x1="675.338" y1="790.644" x2="690.278" y2="775.886"/>
		
			<line fill="none" stroke="#FFFFFF" stroke-width="2" stroke-miterlimit="10" x1="675.338" y1="761.128" x2="690.278" y2="775.886"/>
	</g>
	<g>
		
			<line fill="none" stroke="#FFFFFF" stroke-width="2" stroke-miterlimit="10" x1="675.338" y1="1223.397" x2="690.278" y2="1208.64"/>
		
			<line fill="none" stroke="#FFFFFF" stroke-width="2" stroke-miterlimit="10" x1="675.338" y1="1193.882" x2="690.278" y2="1208.64"/>
	</g>
</g>
<rect x="125.078" y="857.94" fill-rule="evenodd" clip-rule="evenodd" fill="none" width="354.074" height="49.922"/>
<text transform="matrix(1 0 0 1 125.0776 879.75)" fill="#FFFFFF" font-family="'Kreon-Light'" font-size="30">Stories you are part of</text>
<rect x="125.078" y="519.999" fill-rule="evenodd" clip-rule="evenodd" fill="none" width="354.074" height="49.922"/>
<text transform="matrix(1 0 0 1 125.0776 541.8086)" fill="#FFFFFF" font-family="'Kreon-Light'" font-size="30">Stories near you</text>
<g opacity="0.4">
	<g>
		<g>
			<path fill="#231F20" d="M121.14,468.002c0,6.6,5.4,12,12,12h544.617c6.6,0,12-5.4,12-12v-38.849c0-6.6-5.4-12-12-12H133.14
				c-6.6,0-12,5.4-12,12V468.002z"/>
		</g>
	</g>
</g>
<g opacity="0.5">
	<g>
		<g>
			<path fill="#231F20" d="M94.608,1367.789c0,6.6,5.4,12,12,12h567.16c6.6,0,12-5.4,12-12v-38.849c0-6.6-5.4-12-12-12h-567.16
				c-6.6,0-12,5.4-12,12V1367.789z"/>
		</g>
	</g>
</g>
<text transform="matrix(1 0 0 1 506.6821 542.1104)"><tspan x="0" y="0" fill="#FFFFFF" font-family="'Kreon-Light'" font-size="30">in </tspan><tspan x="30.719" y="0" fill="#FFFFFF" font-family="'Kreon-Bold'" font-size="30">Mexico City</tspan></text>
<path fill-rule="evenodd" clip-rule="evenodd" fill="#59141F" d="M99.255,521.51c-5.214,0-9.438,4.589-9.438,10.248
	c0,4.148,2.834,6.402,5.536,9.335c2.234,2.532,3.369,6.398,3.593,7.215c-0.003,0.025-0.006,0.056-0.006,0.085
	c0,0.323,0.243,0.59,0.542,0.59c0.305,0,0.544-0.267,0.544-0.59c0-0.04-0.003-0.071-0.007-0.107c0.254-0.93,1.561-5.315,4.144-7.772
	c2.207-2.397,4.529-5.048,4.529-8.755C108.693,526.099,104.466,521.51,99.255,521.51z M99.25,536.729
	c-2.838,0-5.145-2.309-5.145-5.148c0-2.846,2.307-5.147,5.145-5.147c2.846,0,5.156,2.302,5.156,5.147
	C104.406,534.421,102.096,536.729,99.25,536.729z"/>
<g>
	<path fill-rule="evenodd" clip-rule="evenodd" fill="#59141F" d="M99.255,880.32c-2.629-2.09-5.358-4.029-7.713-6.416
		c-1.278-1.296-2.34-2.742-2.985-4.462c-0.557-1.485-0.758-3.009-0.208-4.532c0.793-2.199,2.421-3.439,4.706-3.748
		c1.895-0.258,3.581,0.309,5.007,1.598c0.498,0.449,0.881,0.988,1.191,1.612c0.176-0.281,0.319-0.55,0.498-0.792
		c1.086-1.469,2.566-2.252,4.366-2.438c1.796-0.186,3.373,0.342,4.679,1.588c1.314,1.254,1.819,2.827,1.665,4.615
		c-0.166,1.92-1.025,3.555-2.169,5.059c-1.166,1.531-2.593,2.805-4.079,4.01c-1.589,1.287-3.208,2.535-4.814,3.799
		C99.358,880.244,99.318,880.273,99.255,880.32z"/>
</g>
<text transform="matrix(1 0 0 1 196.5195 354.7471)" fill="#FFFFFF" font-family="'GothamRounded-Medium'" font-size="30.7545">MOSI</text>
<g>
	<path fill-rule="evenodd" clip-rule="evenodd" fill="#59141F" d="M146.033,318.91c0-0.65,0-1.238,0-1.916c-0.71,0-1.41,0-2.154,0
		c0-0.735,0-1.391,0-2.086c2.154,0,4.278,0,6.448,0c0,0.689,0,1.342,0,2.061c-0.726,0-1.41,0-2.152,0c0,0.687,0,1.311,0,1.941
		c14.319,0.369,25.877,13.096,24.833,27.773c-0.959,13.504-12.021,24.002-25.561,24.166c-13.812,0.17-24.708-10.215-26.139-22.994
		C119.538,332.07,132.006,319.107,146.033,318.91z M147.148,362.912c0.204,0.465,0.386,0.787,0.492,1.139
		c0.147,0.493,0.413,0.705,0.948,0.613c0.882-0.152,1.778-0.219,2.651-0.402c8.769-1.881,15.145-9.337,15.647-18.252
		c0.022-0.41-0.079-0.638-0.488-0.76c-0.439-0.129-0.864-0.319-1.438-0.535c0.569-0.197,0.974-0.355,1.392-0.469
		c0.391-0.107,0.584-0.277,0.509-0.723c-0.121-0.747-0.161-1.505-0.29-2.252c-1.507-8.785-9.362-15.74-18.242-16.146
		c-0.191-0.008-0.473,0.199-0.581,0.386c-0.201,0.337-0.301,0.729-0.504,1.259c-0.18-0.453-0.332-0.713-0.389-0.994
		c-0.123-0.603-0.46-0.764-1.036-0.664c-0.905,0.148-1.828,0.209-2.729,0.385c-8.348,1.643-14.885,8.864-15.702,17.326
		c-0.109,1.146-0.109,1.145,0.975,1.543c0.184,0.067,0.364,0.141,0.602,0.234c-0.124,0.092-0.192,0.152-0.271,0.191
		c-1.521,0.771-1.521,0.771-1.275,2.465c0.024,0.162,0.056,0.318,0.076,0.477c1.162,9.021,9.041,16.371,18.134,16.938
		c0.572,0.035,0.895-0.111,1.05-0.672C146.774,363.672,146.948,363.371,147.148,362.912z"/>
	<path fill-rule="evenodd" clip-rule="evenodd" fill="#59141F" d="M151.754,348.684c0.374,0.552,0.803,1.176,1.232,1.799
		c-0.022,0.032-0.039,0.062-0.062,0.094c-0.511-0.275-1.039-0.523-1.527-0.838c-0.413-0.267-0.756-0.338-1.169,0.008
		c-0.239,0.199-0.549,0.373-0.854,0.422c-0.884,0.133-1.054,0.719-1.162,1.477c-0.242,1.728-0.555,3.445-0.836,5.168
		c-0.021,0.102-0.062,0.197-0.221,0.295c-0.252-1.246-0.498-2.49-0.749-3.735c-0.172-0.854-0.326-1.712-0.527-2.562
		c-0.044-0.184-0.209-0.393-0.375-0.482c-0.546-0.284-1.117-0.519-1.752-0.809c-1.275,1.012-2.608,2.061-3.939,3.113
		c-1.31,1.035-2.616,2.071-4.051,2.994c0.304-0.379,0.602-0.76,0.909-1.135c1.729-2.112,3.456-4.237,5.204-6.339
		c0.273-0.331,0.221-0.579,0.15-0.972c-0.199-1.107-0.91-1.322-1.874-1.439c-1.861-0.226-3.708-0.568-5.574-1.004
		c0.858-0.16,1.716-0.324,2.576-0.48c1.333-0.238,2.668-0.457,3.995-0.729c0.231-0.045,0.472-0.291,0.606-0.508
		c0.228-0.367,0.311-0.836,0.57-1.166c0.393-0.494,0.312-0.866-0.036-1.323c-0.378-0.501-0.685-1.052-0.906-1.69
		c0.624,0.414,1.23,0.846,1.872,1.215c0.186,0.105,0.485,0.064,0.716,0.012c0.188-0.044,0.341-0.27,0.533-0.303
		c1.318-0.226,1.476-1.227,1.638-2.297c0.236-1.564,0.556-3.119,0.842-4.675c0.034-0.177,0.104-0.345,0.197-0.636
		c0.399,2.205,0.792,4.276,1.141,6.355c0.076,0.466,0.286,0.634,0.7,0.857c0.87,0.465,1.43,0.174,2.113-0.377
		c2.205-1.771,4.459-3.477,6.694-5.207c0.193-0.148,0.394-0.29,0.682-0.348c-1.021,1.3-2.041,2.607-3.062,3.909
		c-1.024,1.3-2.04,2.606-3.081,3.894c-0.244,0.299-0.305,0.537-0.05,0.832c0.044,0.053,0.079,0.121,0.092,0.184
		c0.184,1.313,1.109,1.541,2.231,1.672c1.659,0.191,3.302,0.525,4.964,0.945c-0.965,0.159-1.93,0.32-2.892,0.477
		c-1.135,0.182-2.271,0.349-3.4,0.556c-0.178,0.032-0.389,0.204-0.471,0.37C152.473,347.033,152.144,347.809,151.754,348.684z
		 M144.759,348.728c1.6,1.157,4.034,0.912,5.618-0.532c1.523-1.393,1.96-3.912,0.929-5.574c-0.829,1.044-1.647,2.07-2.602,3.271
		c-0.264-0.488-0.584-0.826-0.607-1.182c-0.064-0.92-0.266-1.221-1.196-1.165c-0.504,0.032-0.722-0.151-0.829-0.652
		c0.486-0.374,0.992-0.767,1.495-1.162c0.518-0.401,1.037-0.815,1.58-1.241c-1.865-0.932-4.103-0.461-5.515,1.082
		c-1.122,1.225-1.696,3.559-0.643,5.191c0.937-1.133,1.862-2.258,2.879-3.486c0.163,0.41,0.406,0.714,0.372,0.982
		c-0.11,0.825,0.4,0.951,1,1.096c0.358,0.09,0.685,0.287,1.145,0.49C147.06,346.896,145.914,347.809,144.759,348.728z"/>
</g>
<g>
	<path fill="#FFFFFF" d="M394.643,439.107v7.441h7.046v2.773h-7.046v7.969h-2.245l-0.528-0.351v-7.618h-6.561v-2.201l0.352-0.572
		h6.209v-7.441H394.643z"/>
</g>
<circle fill="none" stroke="#FFFFFF" stroke-width="2" stroke-miterlimit="10" cx="393.5" cy="448.199" r="16.5"/>
<g>
	<g>
		<rect x="73.5" y="253.903" fill="none" width="640" height="40"/>
		<text transform="matrix(1 0 0 1 160.9814 283.3179)" fill="#231F20" font-family="'HelveticaNeue'" font-size="23">Carrier</text>
		<text transform="matrix(1 0 0 1 335.9888 283.3179)" fill="#231F20" font-family="'HelveticaNeue-Medium'" font-size="25">12:34 AM</text>
		<text transform="matrix(1 0 0 1 585.8247 283.3179)" fill="#231F20" font-family="'HelveticaNeue'" font-size="23">100%</text>
		<path opacity="0.5" fill="#231F20" d="M577.871,280.59l-6.642-6.136l6.22-5.912l-8.686-7.676v11.307l-5.774-5.334l-1.357,1.469
			l6.673,6.166l-6.683,6.348l1.378,1.451l5.764-5.477v11.373L577.871,280.59z M570.763,283.901v-7.155l4.075,3.765L570.763,283.901z
			 M570.763,265.304l3.726,3.293l-3.726,3.54V265.304z"/>
		<g>
			<path fill="#231F20" d="M246.304,274.253l2.058,2.232c1.754-1.619,4.013-2.516,6.416-2.516c2.398,0,4.656,0.895,6.41,2.511
				l2.056-2.232c-2.317-2.136-5.298-3.316-8.466-3.316C251.605,270.932,248.622,272.116,246.304,274.253z"/>
			<path fill="#231F20" d="M250.725,279.053l4.047,4.396l4.052-4.4C256.53,276.94,253.016,276.942,250.725,279.053z"/>
			<path fill="#231F20" d="M254.779,264.95c-4.687,0-9.095,1.75-12.521,4.908l2.028,2.204c2.872-2.646,6.565-4.112,10.492-4.112
				c3.923,0,7.614,1.463,10.482,4.107l2.029-2.205C263.868,266.696,259.461,264.95,254.779,264.95z"/>
		</g>
		<g>
			<circle fill="#231F20" cx="92.344" cy="275.235" r="6"/>
			<path fill="#231F20" d="M106.344,269.235c-3.313,0-6,2.688-6,6c0,3.314,2.687,6,6,6s6-2.686,6-6
				C112.344,271.924,109.658,269.235,106.344,269.235z"/>
			<path fill="#231F20" d="M120.344,269.235c-3.313,0-6,2.688-6,6c0,3.314,2.687,6,6,6s6-2.686,6-6
				C126.344,271.924,123.658,269.235,120.344,269.235z"/>
			<path fill="#231F20" d="M134.344,269.235c-3.313,0-6,2.688-6,6c0,3.314,2.687,6,6,6s6-2.686,6-6
				C140.344,271.924,137.658,269.235,134.344,269.235z"/>
			<path fill="#231F20" d="M148.344,269.235c-3.313,0-6,2.688-6,6c0,3.314,2.687,6,6,6s6-2.686,6-6
				C154.344,271.924,151.658,269.235,148.344,269.235z M148.344,280.235c-2.756,0-5-2.239-5-5c0-2.755,2.244-5,5-5
				c2.758,0,5,2.245,5,5C153.344,277.996,151.102,280.235,148.344,280.235z"/>
		</g>
	</g>
	<g>
		<path fill="#231F20" d="M696.663,265.965c0.561,0,1.016,0.455,1.016,1.016v14.94c0,0.56-0.455,1.016-1.016,1.016H656.72
			c-0.558,0-1.014-0.456-1.014-1.016v-14.94c0-0.561,0.457-1.016,1.014-1.016H696.663 M696.663,264.95H656.72
			c-1.115,0-2.029,0.912-2.029,2.03v14.94c0,1.117,0.914,2.029,2.029,2.029h39.942c1.117,0,2.028-0.912,2.028-2.029v-14.94
			C698.691,265.862,697.78,264.95,696.663,264.95L696.663,264.95z"/>
		<path fill="#231F20" d="M696.691,280.95c0,0.551-0.448,1-1,1h-38c-0.548,0-1-0.449-1-1v-13c0-0.549,0.452-1,1-1h38
			c0.552,0,1,0.451,1,1V280.95z"/>
		<path fill="#231F20" d="M699.691,270.275v8c2.211,0,4-1.79,4-4C703.691,272.067,701.902,270.275,699.691,270.275z"/>
	</g>
</g>
<g opacity="0.4">
	<path fill-rule="evenodd" clip-rule="evenodd" fill="#FFFFFF" d="M495.391,1362.668c-0.052-1.585-0.104-3.145-0.151-4.704
		c-0.142-4.544-0.284-9.093-0.412-13.636c-0.005-0.224,0.104-0.489,0.239-0.673c2.307-3.091,4.62-6.178,6.95-9.25
		c0.137-0.179,0.425-0.332,0.645-0.332c9.175-0.017,18.351-0.017,27.528-0.001c0.221,0.001,0.513,0.15,0.646,0.327
		c2.341,3.087,4.665,6.186,6.984,9.291c0.124,0.171,0.214,0.418,0.208,0.628c-0.114,4.263-0.243,8.523-0.376,12.785
		c-0.058,1.846-0.124,3.689-0.188,5.564C523.433,1362.668,509.433,1362.668,495.391,1362.668z M535.102,1343.991
		c-0.057-0.133-0.067-0.188-0.093-0.227c-1.762-2.348-3.519-4.697-5.294-7.029c-0.112-0.146-0.389-0.237-0.591-0.237
		c-8.464-0.012-16.929-0.013-25.394,0.003c-0.219,0.001-0.514,0.148-0.649,0.327c-1.713,2.245-3.405,4.509-5.101,6.771
		c-0.077,0.105-0.128,0.224-0.231,0.403c4.779,0,9.468,0,14.151,0c0.384,2.742,2.057,4.424,4.403,4.466
		c1.11,0.018,2.104-0.312,2.963-1.012c1.077-0.881,1.591-2.053,1.671-3.465C525.654,1343.991,530.341,1343.991,535.102,1343.991z"/>
</g>
<path opacity="0.4" fill-rule="evenodd" clip-rule="evenodd" fill="#FFFFFF" d="M279.009,1329.947
	c-6.881,0-12.455,6.055-12.455,13.523c0,5.475,3.741,8.449,7.307,12.319c2.948,3.341,4.445,8.444,4.741,9.521
	c-0.004,0.033-0.008,0.073-0.008,0.112c0,0.426,0.321,0.779,0.715,0.779c0.402,0,0.718-0.354,0.718-0.779
	c0-0.053-0.004-0.094-0.01-0.143c0.336-1.227,2.06-7.014,5.47-10.257c2.912-3.163,5.976-6.661,5.976-11.554
	C291.464,1336.002,285.887,1329.947,279.009,1329.947z M279.002,1350.032c-3.746,0-6.79-3.047-6.79-6.794
	c0-3.756,3.044-6.793,6.79-6.793c3.756,0,6.804,3.037,6.804,6.793C285.807,1346.985,282.759,1350.032,279.002,1350.032z"/>
<circle opacity="0.4" fill="none" stroke="#FFFFFF" stroke-width="3" stroke-miterlimit="10" cx="390.188" cy="1347.896" r="21.138"/>
<g opacity="0.4">
	<path fill="#FFFFFF" d="M392.234,1337.33v9.002h8.629v3.88h-8.629v9.083h-4.046v-9.083h-8.629v-3.88h8.629v-9.002H392.234z"/>
</g>
<g>
	<path fill-rule="evenodd" clip-rule="evenodd" fill="#FFFFFF" d="M164.643,1354.583c-1.255,1.407-2.471,2.751-3.665,4.113
		c-1.16,1.325-2.279,2.688-3.456,3.997c-0.425,0.474-0.918,0.923-1.463,1.242c-0.94,0.551-1.641,0.132-1.717-0.943
		c-0.024-0.348-0.038-0.697-0.038-1.045c-0.002-10.117-0.004-20.236,0.004-30.354c0-0.555,0.056-1.113,0.14-1.662
		c0.132-0.871,0.696-1.34,1.542-1.47c0.429-0.065,0.866-0.105,1.3-0.105c4.92-0.008,9.839-0.007,14.759-0.001
		c0.365,0,0.732,0.022,1.094,0.076c1.204,0.178,1.709,0.705,1.832,1.906c0.042,0.416,0.063,0.836,0.063,1.253
		c0.003,10.171,0.003,20.341,0,30.511c0,0.366-0.018,0.733-0.058,1.097c-0.086,0.784-0.609,1.126-1.365,0.888
		c-0.822-0.257-1.364-0.885-1.904-1.502c-1.927-2.206-3.845-4.421-5.774-6.626C165.548,1355.513,165.127,1355.095,164.643,1354.583z
		"/>
</g>
<g opacity="0.4">
	<path fill-rule="evenodd" clip-rule="evenodd" fill="#FFFFFF" d="M624.857,1366.095c-3.614,0.012-7.219-0.142-10.752-0.98
		c-0.975-0.232-1.927-0.604-2.854-0.995c-1.006-0.425-1.362-1.201-1.251-2.334c0.349-3.571,2.061-6.332,4.878-8.446
		c2.496-1.873,5.35-2.819,8.447-3.072c3.889-0.316,7.537,0.426,10.833,2.562c2.813,1.82,4.732,4.314,5.412,7.652
		c0.135,0.663,0.184,1.348,0.219,2.026c0.028,0.569-0.306,0.98-0.752,1.299c-1,0.717-2.16,1.043-3.332,1.313
		c-2.85,0.654-5.749,0.896-8.664,0.973C626.314,1366.11,625.585,1366.095,624.857,1366.095z"/>
	<path fill-rule="evenodd" clip-rule="evenodd" fill="#FFFFFF" d="M624.897,1345.685c-4.363,0.008-7.994-3.555-8.002-7.854
		c-0.007-4.559,3.517-8.145,7.999-8.14c4.387,0.007,7.976,3.569,7.981,7.925C632.88,1342.095,629.339,1345.677,624.897,1345.685z"/>
</g>
</svg>
