<?xml version="1.0" encoding="utf-8"?>
<!-- Generator: Adobe Illustrator 16.0.0, SVG Export Plug-In . SVG Version: 6.00 Build 0)  -->
<!DOCTYPE svg PUBLIC "-//W3C//DTD SVG 1.1//EN" "http://www.w3.org/Graphics/SVG/1.1/DTD/svg11.dtd">
<svg version="1.1" id="Layer_1" xmlns="http://www.w3.org/2000/svg" xmlns:xlink="http://www.w3.org/1999/xlink" x="0px" y="0px"
	 width="132.521px" height="217.297px" viewBox="0 0 132.521 217.297" enable-background="new 0 0 132.521 217.297"
	 xml:space="preserve">
<path fill="#59141F" d="M132.521,179.081v8.401c0,16.461-13.4,29.815-30.015,29.815H30.021C13.407,217.297,0,203.943,0,187.482
	v-72.894c0-8.303,3.402-15.807,8.905-21.208c-2.997,4.5-4.755,9.902-4.755,15.754v69.944c0,15.859,13.012,28.664,29.065,28.664
	h70.242C119.52,207.745,132.521,194.887,132.521,179.081z"/>
<path fill="#FF2434" d="M132.521,109.087v69.994c0,15.807-13.002,28.664-29.062,28.664H33.217
	c-16.055,0-29.065-12.806-29.065-28.664v-69.945c0-5.852,1.758-11.254,4.755-15.754c5.2-7.757,14.161-12.914,24.312-12.914h70.242
	C119.52,80.468,132.521,93.28,132.521,109.087z"/>
<g>
	<path fill="#59141F" d="M30.273,120.447v-9.198c0-3.822,3.041-6.967,6.965-6.967h1.463c3.033,0,5.053,1.573,6.402,3.708
		l23.819,37.294l23.918-37.41c1.459-2.357,3.482-3.594,6.293-3.594h1.455c3.939,0,6.968,3.146,6.968,6.967v65.828
		c0,3.816-3.027,6.852-6.968,6.852c-3.698,0-6.852-3.149-6.852-6.852v-47.178L74.53,158.762c-1.461,2.244-3.252,3.598-5.838,3.598
		c-2.471,0-4.271-1.354-5.73-3.598L43.864,130.12v47.065c0,3.815-3.03,6.739-6.852,6.739c-3.816,0-6.74-2.924-6.74-6.739
		L30.273,120.447"/>
</g>
<g>
	<path d="M11.942,7.952c0-1.49,1.184-2.716,2.717-2.716h0.569c1.183,0,1.972,0.613,2.497,1.446l9.287,14.544l9.33-14.588
		c0.569-0.92,1.358-1.402,2.453-1.402h0.569c1.533,0,2.717,1.227,2.717,2.716v25.671c0,1.489-1.184,2.672-2.717,2.672
		c-1.445,0-2.672-1.227-2.672-2.672V15.224l-7.491,11.259c-0.569,0.876-1.271,1.402-2.278,1.402c-0.963,0-1.664-0.526-2.233-1.402
		l-7.447-11.171v18.355c0,1.49-1.183,2.629-2.672,2.629c-1.49,0-2.629-1.139-2.629-2.629V7.952z"/>
	<path d="M49.225,20.832v-0.088c0-8.63,6.658-15.858,16.076-15.858c9.421,0,15.99,7.141,15.99,15.771v0.087
		c0,8.63-6.658,15.859-16.077,15.859S49.225,29.461,49.225,20.832z M75.642,20.832v-0.088c0-5.958-4.338-10.908-10.428-10.908
		c-6.089,0-10.339,4.863-10.339,10.821v0.087c0,5.958,4.337,10.865,10.426,10.865C71.392,31.608,75.642,26.79,75.642,20.832z"/>
	<path d="M87.427,32.66c-0.612-0.438-1.051-1.183-1.051-2.059c0-1.402,1.14-2.497,2.541-2.497c0.744,0,1.228,0.219,1.576,0.482
		c2.541,2.015,5.258,3.154,8.587,3.154s5.434-1.577,5.434-3.855v-0.088c0-2.19-1.228-3.373-6.923-4.688
		c-6.526-1.577-10.207-3.504-10.207-9.156v-0.087c0-5.257,4.382-8.893,10.471-8.893c3.854,0,6.966,1.007,9.726,2.847
		c0.613,0.351,1.184,1.095,1.184,2.147c0,1.402-1.141,2.497-2.541,2.497c-0.526,0-0.965-0.132-1.401-0.395
		c-2.366-1.533-4.646-2.322-7.054-2.322c-3.153,0-4.994,1.621-4.994,3.636v0.087c0,2.366,1.4,3.417,7.314,4.819
		c6.484,1.577,9.813,3.899,9.813,8.981v0.087c0,5.739-4.513,9.156-10.952,9.156C94.787,36.515,90.845,35.201,87.427,32.66z"/>
	<path d="M117.174,7.864c0-1.489,1.184-2.672,2.717-2.672c1.489,0,2.672,1.183,2.672,2.672v25.759c0,1.489-1.183,2.672-2.672,2.672
		c-1.533,0-2.717-1.183-2.717-2.672V7.864z"/>
</g>
</svg>
