<?xml version="1.0" encoding="utf-8"?>
<!-- Generator: Adobe Illustrator 16.0.0, SVG Export Plug-In . SVG Version: 6.00 Build 0)  -->
<!DOCTYPE svg PUBLIC "-//W3C//DTD SVG 1.1//EN" "http://www.w3.org/Graphics/SVG/1.1/DTD/svg11.dtd">
<svg version="1.1" id="Layer_1" xmlns="http://www.w3.org/2000/svg" xmlns:xlink="http://www.w3.org/1999/xlink" x="0px" y="0px"
	 width="273px" height="219px" viewBox="0 0 273 219" enable-background="new 0 0 273 219" xml:space="preserve">
<path fill="#231F20" d="M221,59.219c0,2.53-2.256,3.781-4.723,3.781H3.777C1.311,63,0,61.749,0,59.219V4.894
	C0,2.363,1.311,0,3.777,0h212.5C218.744,0,221,2.363,221,4.894V59.219z"/>
<g enable-background="new    ">
	<path fill="#FFFFFF" d="M24.835,21.268c0-1.055,0.854-1.96,1.909-1.96c1.105,0,1.96,0.854,1.96,1.96v2.663
		c1.708-2.562,4.02-4.924,8.391-4.924c4.221,0,6.934,2.261,8.341,5.175c1.859-2.863,4.623-5.175,9.145-5.175
		c5.979,0,9.647,4.02,9.647,10.451v14.371c0,1.105-0.854,1.959-1.909,1.959c-1.105,0-1.959-0.854-1.959-1.959V30.362
		c0-5.024-2.513-7.839-6.733-7.839c-3.919,0-7.135,2.915-7.135,8.04v13.266c0,1.105-0.854,1.959-1.96,1.959
		c-1.055,0-1.909-0.854-1.909-1.959V30.262c0-4.874-2.562-7.738-6.683-7.738c-4.12,0-7.235,3.417-7.235,8.19v13.115
		c0,1.105-0.804,1.959-1.91,1.959s-1.959-0.854-1.959-1.959V21.268z"/>
	<path fill="#FFFFFF" d="M71.961,32.674v-0.101c0-7.336,5.728-13.566,13.567-13.566c7.788,0,13.516,6.13,13.516,13.466v0.101
		c0,7.336-5.778,13.566-13.617,13.566C77.639,46.14,71.961,40.01,71.961,32.674z M95.075,32.674v-0.101
		c0-5.577-4.17-10.149-9.647-10.149c-5.628,0-9.497,4.572-9.497,10.049v0.101c0,5.577,4.12,10.1,9.597,10.1
		C91.156,42.673,95.075,38.15,95.075,32.674z"/>
	<path fill="#FFFFFF" d="M106.98,21.268c0-1.055,0.854-1.96,1.909-1.96c1.105,0,1.96,0.854,1.96,1.96v2.814
		c1.708-2.814,4.421-5.075,8.894-5.075c6.281,0,9.949,4.221,9.949,10.401v14.421c0,1.105-0.854,1.959-1.91,1.959
		c-1.105,0-1.959-0.854-1.959-1.959V30.362c0-4.823-2.613-7.839-7.186-7.839c-4.472,0-7.788,3.267-7.788,8.141v13.165
		c0,1.105-0.804,1.959-1.91,1.959s-1.959-0.854-1.959-1.959V21.268z"/>
	<path fill="#FFFFFF" d="M150.24,46.14c-7.135,0-12.964-5.477-12.964-13.516v-0.101c0-7.487,5.276-13.517,12.462-13.517
		c7.688,0,12.059,6.28,12.059,13.164c0,1.056-0.854,1.81-1.809,1.81h-18.793c0.553,5.628,4.522,8.793,9.146,8.793
		c3.216,0,5.577-1.256,7.487-3.015c0.301-0.251,0.652-0.452,1.105-0.452c0.954,0,1.707,0.754,1.707,1.658
		c0,0.452-0.2,0.904-0.603,1.256C157.576,44.582,154.662,46.14,150.24,46.14z M157.928,31.116c-0.402-4.724-3.115-8.844-8.291-8.844
		c-4.521,0-7.938,3.769-8.441,8.844H157.928z"/>
	<path fill="#FFFFFF" d="M167.975,52.974c-0.604-0.251-1.206-0.754-1.206-1.658c0-0.954,0.804-1.658,1.658-1.658
		c0.352,0,0.653,0.101,0.954,0.201c0.754,0.251,1.508,0.452,2.814,0.452c2.412,0,3.818-1.457,5.226-4.623l0.201-0.401
		l-10.854-23.014c-0.151-0.352-0.251-0.703-0.251-1.055c0-1.056,0.854-1.91,1.959-1.91c1.056,0,1.608,0.653,1.96,1.508l9.044,20.4
		l8.04-20.45c0.302-0.805,0.854-1.458,1.859-1.458c1.056,0,1.909,0.854,1.909,1.91c0,0.301-0.1,0.653-0.201,0.954l-10.149,24.22
		c-2.261,5.376-4.773,7.336-8.692,7.336C170.537,53.728,169.281,53.426,167.975,52.974z"/>
</g>
<path fill="#231F20" d="M273,135.143c0,2.53-4.012,4.857-7.044,4.857H4.828C1.796,140,0,137.673,0,135.143V80.817
	C0,78.288,1.796,76,4.828,76h261.128c3.032,0,7.044,2.288,7.044,4.817V135.143z"/>
<g enable-background="new    ">
	<path fill="#FFFFFF" d="M24.835,99.156c0-1.055,0.854-1.96,1.909-1.96c1.105,0,1.96,0.854,1.96,1.96v4.874
		c1.909-4.321,5.678-6.934,8.944-6.934c1.156,0,1.909,0.854,1.909,1.959c0,1.056-0.703,1.81-1.708,1.96
		c-5.025,0.603-9.145,4.371-9.145,11.858v8.844c0,1.055-0.804,1.959-1.91,1.959s-1.959-0.854-1.959-1.959V99.156z"/>
	<path fill="#FFFFFF" d="M56.389,124.028c-7.135,0-12.964-5.477-12.964-13.516v-0.101c0-7.487,5.276-13.517,12.461-13.517
		c7.688,0,12.059,6.28,12.059,13.164c0,1.056-0.854,1.81-1.809,1.81H47.344c0.553,5.628,4.522,8.793,9.145,8.793
		c3.216,0,5.577-1.256,7.487-3.015c0.301-0.251,0.653-0.452,1.105-0.452c0.955,0,1.708,0.754,1.708,1.658
		c0,0.452-0.201,0.904-0.603,1.256C63.725,122.471,60.811,124.028,56.389,124.028z M64.076,109.005
		c-0.402-4.724-3.115-8.844-8.291-8.844c-4.522,0-7.939,3.769-8.441,8.844H64.076z"/>
	<path fill="#FFFFFF" d="M76.082,88.454c0-1.056,0.854-1.96,1.91-1.96c1.105,0,1.959,0.904,1.959,1.96v33.264
		c0,1.105-0.804,1.959-1.909,1.959s-1.96-0.854-1.96-1.959V88.454z"/>
	<path fill="#FFFFFF" d="M87.939,115.889v-0.101c0-5.477,4.522-8.392,11.104-8.392c3.316,0,5.678,0.453,7.989,1.105v-0.904
		c0-4.673-2.864-7.085-7.738-7.085c-2.613,0-4.824,0.604-6.733,1.458c-0.251,0.1-0.502,0.15-0.704,0.15
		c-0.904,0-1.708-0.754-1.708-1.658c0-0.804,0.553-1.407,1.056-1.608c2.562-1.105,5.175-1.758,8.492-1.758
		c3.668,0,6.482,0.954,8.391,2.863c1.759,1.759,2.663,4.271,2.663,7.588v14.22c0,1.105-0.804,1.909-1.859,1.909
		c-1.105,0-1.859-0.804-1.859-1.809v-2.361c-1.809,2.361-4.824,4.472-9.396,4.472C92.812,123.979,87.939,121.215,87.939,115.889z
		 M107.083,113.879v-2.513c-1.91-0.553-4.472-1.105-7.638-1.105c-4.874,0-7.587,2.11-7.587,5.377v0.101
		c0,3.266,3.015,5.175,6.532,5.175C103.164,120.913,107.083,117.999,107.083,113.879z"/>
	<path fill="#FFFFFF" d="M121.049,116.542v-15.677h-2.11c-0.904,0-1.708-0.805-1.708-1.709c0-0.954,0.804-1.708,1.708-1.708h2.11
		v-6.131c0-1.055,0.804-1.959,1.91-1.959c1.055,0,1.959,0.904,1.959,1.959v6.131h6.733c0.955,0,1.758,0.804,1.758,1.708
		c0,0.955-0.804,1.709-1.758,1.709h-6.733v15.174c0,3.166,1.759,4.321,4.372,4.321c1.357,0,2.06-0.352,2.362-0.352
		c0.904,0,1.658,0.754,1.658,1.658c0,0.703-0.453,1.256-1.105,1.508c-1.105,0.452-2.312,0.703-3.819,0.703
		C124.215,123.878,121.049,121.818,121.049,116.542z"/>
	<path fill="#FFFFFF" d="M138.984,115.889v-0.101c0-5.477,4.522-8.392,11.105-8.392c3.316,0,5.678,0.453,7.988,1.105v-0.904
		c0-4.673-2.863-7.085-7.738-7.085c-2.612,0-4.823,0.604-6.732,1.458c-0.252,0.1-0.502,0.15-0.703,0.15
		c-0.904,0-1.709-0.754-1.709-1.658c0-0.804,0.553-1.407,1.056-1.608c2.562-1.105,5.175-1.758,8.491-1.758
		c3.668,0,6.482,0.954,8.392,2.863c1.759,1.759,2.663,4.271,2.663,7.588v14.22c0,1.105-0.804,1.909-1.859,1.909
		c-1.105,0-1.859-0.804-1.859-1.809v-2.361c-1.809,2.361-4.823,4.472-9.396,4.472C143.858,123.979,138.984,121.215,138.984,115.889z
		 M158.129,113.879v-2.513c-1.91-0.553-4.473-1.105-7.638-1.105c-4.874,0-7.587,2.11-7.587,5.377v0.101
		c0,3.266,3.015,5.175,6.531,5.175C154.209,120.913,158.129,117.999,158.129,113.879z"/>
	<path fill="#FFFFFF" d="M170.988,88.454c0-1.105,0.854-1.96,1.91-1.96c1.105,0,1.959,0.854,1.959,1.96v14.22
		c2.111-3.115,5.176-5.778,9.949-5.778c6.23,0,12.411,4.924,12.411,13.466v0.101c0,8.492-6.13,13.517-12.411,13.517
		c-4.824,0-7.939-2.613-9.949-5.527v3.267c0,1.055-0.804,1.959-1.909,1.959s-1.96-0.904-1.96-1.959V88.454z M193.248,110.513v-0.101
		c0-6.131-4.221-10.05-9.145-10.05c-4.824,0-9.396,4.07-9.396,9.999v0.101c0,6.029,4.572,10.05,9.396,10.05
		C189.128,120.512,193.248,116.793,193.248,110.513z"/>
	<path fill="#FFFFFF" d="M205.655,88.454c0-1.056,0.854-1.96,1.909-1.96c1.105,0,1.96,0.904,1.96,1.96v33.264
		c0,1.105-0.804,1.959-1.909,1.959s-1.96-0.854-1.96-1.959V88.454z"/>
	<path fill="#FFFFFF" d="M230.827,124.028c-7.136,0-12.964-5.477-12.964-13.516v-0.101c0-7.487,5.275-13.517,12.461-13.517
		c7.688,0,12.06,6.28,12.06,13.164c0,1.056-0.854,1.81-1.809,1.81h-18.792c0.553,5.628,4.521,8.793,9.145,8.793
		c3.216,0,5.577-1.256,7.486-3.015c0.302-0.251,0.653-0.452,1.105-0.452c0.955,0,1.709,0.754,1.709,1.658
		c0,0.452-0.201,0.904-0.604,1.256C238.163,122.471,235.249,124.028,230.827,124.028z M238.515,109.005
		c-0.401-4.724-3.115-8.844-8.29-8.844c-4.523,0-7.939,3.769-8.441,8.844H238.515z"/>
</g>
<path fill="#231F20" d="M221,214.339c0,2.53-2.248,4.661-4.716,4.661H3.777C1.311,219,0,216.869,0,214.339v-54.325
	C0,157.482,1.311,155,3.777,155h212.507c2.468,0,4.716,2.482,4.716,5.014V214.339z"/>
<g enable-background="new    ">
	<path fill="#FFFFFF" d="M23.428,199.857c-0.352-0.251-0.704-0.754-0.704-1.407c0-0.904,0.753-1.658,1.708-1.658
		c0.352,0,0.703,0.101,0.955,0.302c2.663,1.809,5.427,2.764,8.241,2.764c3.115,0,5.376-1.607,5.376-4.12v-0.101
		c0-2.613-3.065-3.618-6.482-4.572c-4.07-1.156-8.592-2.562-8.592-7.336v-0.101c0-4.473,3.718-7.437,8.843-7.437
		c2.764,0,5.778,0.854,8.291,2.211c0.502,0.301,0.955,0.854,0.955,1.607c0,0.904-0.754,1.658-1.708,1.658
		c-0.352,0-0.653-0.101-0.854-0.201c-2.211-1.256-4.573-2.01-6.784-2.01c-3.065,0-5.024,1.608-5.024,3.769v0.101
		c0,2.462,3.216,3.417,6.683,4.472c4.02,1.206,8.341,2.764,8.341,7.437v0.101c0,4.925-4.07,7.789-9.246,7.789
		C30.01,203.124,26.242,201.867,23.428,199.857z"/>
	<path fill="#FFFFFF" d="M51.664,195.737v-15.677h-2.11c-0.904,0-1.708-0.805-1.708-1.709c0-0.954,0.804-1.708,1.708-1.708h2.11
		v-6.131c0-1.055,0.804-1.959,1.91-1.959c1.055,0,1.959,0.904,1.959,1.959v6.131h6.733c0.955,0,1.758,0.804,1.758,1.708
		c0,0.955-0.804,1.709-1.758,1.709h-6.733v15.174c0,3.166,1.759,4.321,4.372,4.321c1.356,0,2.06-0.352,2.362-0.352
		c0.904,0,1.658,0.754,1.658,1.658c0,0.703-0.453,1.256-1.105,1.508c-1.105,0.452-2.312,0.703-3.819,0.703
		C54.829,203.073,51.664,201.014,51.664,195.737z"/>
	<path fill="#FFFFFF" d="M69.198,189.758v-0.101c0-7.336,5.728-13.566,13.567-13.566c7.788,0,13.516,6.13,13.516,13.466v0.101
		c0,7.336-5.778,13.566-13.617,13.566C74.875,203.224,69.198,197.094,69.198,189.758z M92.312,189.758v-0.101
		c0-5.577-4.17-10.149-9.647-10.149c-5.628,0-9.497,4.572-9.497,10.049v0.101c0,5.577,4.12,10.1,9.597,10.1
		C88.392,199.757,92.312,195.234,92.312,189.758z"/>
	<path fill="#FFFFFF" d="M104.217,178.352c0-1.055,0.854-1.96,1.909-1.96c1.105,0,1.96,0.854,1.96,1.96v4.874
		c1.909-4.321,5.678-6.934,8.944-6.934c1.156,0,1.909,0.854,1.909,1.959c0,1.056-0.703,1.81-1.708,1.96
		c-5.025,0.603-9.145,4.371-9.145,11.858v8.844c0,1.055-0.804,1.959-1.91,1.959s-1.959-0.854-1.959-1.959V178.352z"/>
	<path fill="#FFFFFF" d="M125.52,168.503c0-1.256,1.005-2.06,2.261-2.06c1.306,0,2.311,0.804,2.311,2.06v0.653
		c0,1.206-1.005,2.061-2.311,2.061c-1.256,0-2.261-0.854-2.261-2.061V168.503z M125.871,178.352c0-1.055,0.854-1.96,1.91-1.96
		c1.105,0,1.959,0.854,1.959,1.96v22.562c0,1.105-0.804,1.959-1.909,1.959s-1.96-0.854-1.96-1.959V178.352z"/>
	<path fill="#FFFFFF" d="M151.043,203.224c-7.135,0-12.964-5.477-12.964-13.516v-0.101c0-7.487,5.276-13.517,12.462-13.517
		c7.688,0,12.059,6.28,12.059,13.164c0,1.056-0.854,1.81-1.809,1.81h-18.793c0.553,5.628,4.522,8.793,9.146,8.793
		c3.216,0,5.577-1.256,7.487-3.015c0.301-0.251,0.652-0.452,1.105-0.452c0.954,0,1.707,0.754,1.707,1.658
		c0,0.452-0.2,0.904-0.603,1.256C158.379,201.666,155.465,203.224,151.043,203.224z M158.73,188.2
		c-0.402-4.724-3.115-8.844-8.291-8.844c-4.521,0-7.938,3.769-8.441,8.844H158.73z"/>
	<path fill="#FFFFFF" d="M168.979,199.857c-0.353-0.251-0.704-0.754-0.704-1.407c0-0.904,0.753-1.658,1.708-1.658
		c0.352,0,0.703,0.101,0.955,0.302c2.663,1.809,5.427,2.764,8.24,2.764c3.115,0,5.377-1.607,5.377-4.12v-0.101
		c0-2.613-3.065-3.618-6.482-4.572c-4.07-1.156-8.592-2.562-8.592-7.336v-0.101c0-4.473,3.719-7.437,8.844-7.437
		c2.764,0,5.777,0.854,8.291,2.211c0.502,0.301,0.954,0.854,0.954,1.607c0,0.904-0.754,1.658-1.708,1.658
		c-0.352,0-0.654-0.101-0.854-0.201c-2.211-1.256-4.573-2.01-6.784-2.01c-3.064,0-5.023,1.608-5.023,3.769v0.101
		c0,2.462,3.215,3.417,6.682,4.472c4.021,1.206,8.342,2.764,8.342,7.437v0.101c0,4.925-4.07,7.789-9.246,7.789
		C175.561,203.124,171.791,201.867,168.979,199.857z"/>
</g>
</svg>
